<?xml version="1.0" encoding="utf-8"?>
<!-- Generator: Adobe Illustrator 21.0.0, SVG Export Plug-In . SVG Version: 6.00 Build 0)  -->
<svg version="1.1" id="Calque_2" xmlns="http://www.w3.org/2000/svg" xmlns:xlink="http://www.w3.org/1999/xlink" x="0px" y="0px"
	 viewBox="0 0 70.7 61.8" style="enable-background:new 0 0 70.7 61.8;" xml:space="preserve">
<style type="text/css">
	.st0{fill:#08181E;}
</style>
<path class="st0" d="M70.7,18.2c0,0.7-0.6,1.3-1.3,1.3h-4.5l-6,19.3c-0.2,0.5-0.7,0.9-1.2,0.9c-0.1,0-0.2,0-0.4-0.1
	c-0.7-0.2-1-0.9-0.8-1.6l3.8-12.4H25.3l4.7,12.7l25.7,4.2c2.4,0.5,3.4,2.7,3.2,4.5c-0.2,1.6-1.3,2.8-2.7,2.8H27.7
	c-0.7,0-1.3-0.6-1.3-1.3s0.6-1.3,1.3-1.3h28.5c0.1-0.1,0.3-0.5,0.1-1.1c-0.1-0.5-0.4-1.1-1.2-1.2l-26.3-4.3c-0.4-0.1-0.8-0.4-1-0.8
	l-5.6-15c-0.1-0.4-0.1-0.8,0.1-1.1c0.2-0.3,0.6-0.5,1-0.5h37.7l1.6-5.3c0.2-0.5,0.6-0.9,1.2-0.9h5.4C70.2,16.9,70.7,17.5,70.7,18.2z
	 M37.2,57.1c0,2.6-2.1,4.7-4.7,4.7c-2.6,0-4.7-2.1-4.7-4.7c0-2.6,2.1-4.7,4.7-4.7C35.1,52.4,37.2,54.5,37.2,57.1z M34.7,57.1
	c0-1.2-1-2.2-2.2-2.2c-1.2,0-2.2,1-2.2,2.2c0,1.2,1,2.2,2.2,2.2C33.7,59.3,34.7,58.3,34.7,57.1z M56.7,57.1c0,2.6-2.1,4.7-4.7,4.7
	c-2.6,0-4.7-2.1-4.7-4.7c0-2.6,2.1-4.7,4.7-4.7C54.6,52.4,56.7,54.5,56.7,57.1z M54.2,57.1c0-1.2-1-2.2-2.2-2.2
	c-1.2,0-2.2,1-2.2,2.2c0,1.2,1,2.2,2.2,2.2C53.2,59.3,54.2,58.3,54.2,57.1z M24.8,42.6l0.3,2.5c-0.8,0.1-1.7,0.1-2.5,0.1
	C10.1,45.2,0,35.1,0,22.6C0,10.1,10.1,0,22.6,0C33.7,0,43.3,8.3,45,19.3l-2.5,0.4c-0.5-3.4-1.9-6.5-3.8-9.1
	c-1.6,0.9-3.5,1.8-5.7,2.6c0.6,1.9,1.1,3.9,1.3,6.2l-2.5,0.2c-0.2-2-0.6-3.9-1.2-5.7c-2.1,0.5-4.3,0.9-6.7,1v4.5h-2.5v-4.6
	c-2.2-0.1-4.4-0.4-6.8-1.1c-0.7,2.3-1.3,4.8-1.3,7.6h4.9v2.5h-4.8c0.2,2.4,0.7,4.9,1.6,7.5c2-0.5,3.9-0.8,5.9-1l0.2,2.5
	c-1.7,0.1-3.4,0.4-5.1,0.8c1.3,2.9,3.1,5.9,5.7,9c0.3,0,0.7,0.1,1,0.1C23.4,42.7,24.1,42.7,24.8,42.6z M10.9,23.9H2.6
	c0.3,4.1,1.7,7.8,4,10.8c2-1.1,4-2,6-2.6C11.6,29.2,11,26.5,10.9,23.9z M12.3,13.1c-1.9-0.6-3.8-1.5-5.7-2.6
	c-2.3,3.1-3.8,6.8-4,10.8h8.3C10.9,18.4,11.5,15.6,12.3,13.1z M21.4,12.4V2.6c-1.1,1.1-3.9,4.2-5.9,8.9C17.5,12,19.5,12.3,21.4,12.4
	z M29.7,11.5c-2-4.7-4.8-7.8-5.8-8.9v9.8C26,12.3,27.9,12,29.7,11.5z M27.7,3.2c1.4,1.8,3.1,4.4,4.5,7.7c1.9-0.6,3.5-1.4,4.9-2.2
	C34.5,6,31.3,4.1,27.7,3.2z M8.2,8.6c1.7,0.9,3.4,1.6,5,2.2c1.4-3.2,3.1-5.8,4.4-7.6C14,4.1,10.8,6,8.2,8.6z M18,42.2
	c-2-2.7-3.4-5.3-4.5-7.8c-1.8,0.6-3.5,1.3-5.3,2.3C10.9,39.4,14.3,41.3,18,42.2z"/>
</svg>
