<?xml version="1.0" encoding="utf-8"?>
<!-- Generator: Adobe Illustrator 21.0.0, SVG Export Plug-In . SVG Version: 6.00 Build 0)  -->
<svg version="1.1" id="Layer_1" xmlns="http://www.w3.org/2000/svg" xmlns:xlink="http://www.w3.org/1999/xlink" x="0px" y="0px"
	 viewBox="0 0 491.2 448.3" style="enable-background:new 0 0 491.2 448.3;" xml:space="preserve">
<style type="text/css">
	.st0{fill:#820B19;}
	.st1{fill:#B80B1A;}
	.st2{fill:#E84F09;}
	.st3{fill:#EC6D11;}
	.st4{fill:#F5BC00;}
	.st5{fill:#BC006C;}
	.st6{fill:#F59E10;}
	.st7{fill:#EF7E05;}
	.st8{fill:#7C014C;}
	.st9{fill:#5D0039;}
	.st10{fill:#7D014C;}
	.st11{fill:#BB006B;}
	.st12{fill:#CB007E;}
	.st13{fill:#E6368B;}
	.st14{fill:#7B0049;}
	.st15{fill:#F49A08;}
	.st16{fill:#EE7B04;}
	.st17{fill:#EC691B;}
	.st18{fill:#F8BA00;}
	.st19{fill:#0094D3;}
	.st20{fill:#23B3E8;}
	.st21{fill:#02356F;}
	.st22{fill:#00519A;}
	.st23{fill:#004F9B;}
	.st24{fill:#0095D2;}
	.st25{fill:#8DBF3D;}
	.st26{fill:#5DB13D;}
	.st27{fill:#89BE3E;}
	.st28{fill:#5AB03E;}
	.st29{fill:#007843;}
	.st30{fill:#005E22;}
	.st31{fill:#112356;}
	.st32{fill:#0F3170;}
	.st33{fill:#21B4E9;}
	.st34{fill:#B1CB2A;}
	.st35{fill:#F49C00;}
	.st36{fill:#EE7708;}
	.st37{fill:#E8510A;}
	.st38{fill:#E31513;}
	.st39{fill:#6F0C00;}
	.st40{fill:#580312;}
</style>
<g id="Layer_2">
	<g>
		<polygon class="st0" points="366.2,53.8 366.2,0 419.9,0 		"/>
		<polygon class="st1" points="366.2,53.8 419.9,53.8 419.9,0 		"/>
		<polygon class="st2" points="370.5,151.9 444.6,151.9 444.6,226 		"/>
		<polygon class="st3" points="370.5,151.9 370.5,226 444.6,226 		"/>
		<polygon class="st4" points="370.5,300.1 444.6,300.1 444.6,374.2 		"/>
		<polygon class="st5" points="370.5,300.1 370.5,374.2 444.6,374.2 		"/>
		<polygon class="st6" points="444.6,226 444.6,300.1 370.5,300.1 		"/>
		<polygon class="st7" points="444.6,226 370.5,226 370.5,300.1 		"/>
		<polygon class="st8" points="370.5,374.2 444.6,374.2 444.6,448.3 		"/>
		<polygon class="st9" points="370.5,374.2 370.5,448.3 444.6,448.3 		"/>
		<polygon class="st10" points="370.5,374.2 370.5,448.3 296.4,448.3 		"/>
		<polygon class="st11" points="296.4,300.1 296.4,374.2 222.3,374.2 		"/>
		<polygon class="st12" points="296.4,300.1 222.3,300.1 222.3,374.2 		"/>
		<polygon class="st13" points="296.4,226 296.4,300.1 222.3,300.1 		"/>
		<polygon class="st14" points="296.4,448.3 296.4,374.2 222.3,374.2 		"/>
		<polygon class="st15" points="148.2,300.1 222.3,300.1 222.3,374.2 		"/>
		<polygon class="st16" points="148.2,300.1 148.2,374.2 222.3,374.2 		"/>
		<polygon class="st17" points="148.2,448.3 148.2,374.2 222.3,374.2 		"/>
		<polygon class="st18" points="148.2,226 148.2,300.1 222.3,300.1 		"/>
		<polygon class="st19" points="148.2,77.8 148.2,151.9 222.3,151.9 		"/>
		<polygon class="st20" points="222.3,226 222.3,151.9 148.2,151.9 		"/>
		<polygon class="st0" points="296.4,151.9 296.4,77.8 370.5,77.8 		"/>
		<polygon class="st1" points="296.4,151.9 370.5,151.9 370.5,77.8 		"/>
		<polygon class="st21" points="74.1,151.9 74.1,77.8 148.2,77.8 		"/>
		<polygon class="st22" points="74.1,151.9 148.2,151.9 148.2,77.8 		"/>
		<polygon class="st23" points="0,226 0,151.9 74.1,151.9 		"/>
		<polygon class="st24" points="0,226 74.1,226 74.1,151.9 		"/>
		<polygon class="st25" points="0,374.2 0,300.1 74.1,300.1 		"/>
		<polygon class="st26" points="0,374.2 74.1,374.2 74.1,300.1 		"/>
		<polygon class="st27" points="74.1,374.2 148.2,374.2 148.2,448.3 		"/>
		<polygon class="st28" points="74.1,374.2 74.1,448.3 148.2,448.3 		"/>
		<polygon class="st29" points="0,374.2 74.1,374.2 74.1,448.3 		"/>
		<polygon class="st30" points="0,374.2 0,448.3 74.1,448.3 		"/>
		<polygon class="st31" points="0,77.8 74.1,77.8 74.1,151.9 		"/>
		<polygon class="st32" points="0,77.8 0,151.9 74.1,151.9 		"/>
		<polygon class="st33" points="0,226 74.1,226 74.1,300.1 		"/>
		<polygon class="st34" points="0,226 0,300.1 74.1,300.1 		"/>
		<polygon class="st35" points="456.5,71.7 456.5,37 491.2,37 		"/>
		<polygon class="st36" points="456.5,71.7 491.2,71.7 491.2,37 		"/>
		<polygon class="st37" points="393.5,80.1 439.1,80.1 439.1,125.7 		"/>
		<polygon class="st38" points="393.5,80.1 393.5,125.7 439.1,125.7 		"/>
		<polygon class="st39" points="296.4,77.8 296.4,151.9 222.3,151.9 		"/>
		<polygon class="st40" points="222.3,226 222.3,151.9 296.4,151.9 		"/>
		<polygon class="st11" points="370.5,374.2 296.4,374.2 296.4,448.3 		"/>
	</g>
</g>
</svg>
