<?xml version="1.0" encoding="utf-8"?>
<!-- Generator: Adobe Illustrator 21.0.0, SVG Export Plug-In . SVG Version: 6.00 Build 0)  -->
<svg version="1.1" id="Isolation_Mode" xmlns="http://www.w3.org/2000/svg" xmlns:xlink="http://www.w3.org/1999/xlink" x="0px"
	 y="0px" viewBox="0 0 63.7 58.2" style="enable-background:new 0 0 63.7 58.2;" xml:space="preserve">
<style type="text/css">
	.st0{fill:#08181E;}
</style>
<path class="st0" d="M63.5,49.4c0,0-2,3.1-6.1,3.1c-1.6,0-3.4-0.4-5.6-1.7c-0.6-0.3-0.8-1.1-0.5-1.7c0.3-0.6,1.1-0.8,1.7-0.5
	c4.1,2.3,6.6,1.1,7.7,0.2c-4.3-4.1-4.1-7.1-3.9-10.2l0-0.1c0.1-1.3,0.3-2.3,0.5-3.3c0.3-1.6,0.6-3.1,0.5-5.5c-0.1-3.1-0.2-3.8-0.6-7
	L57,20.5C55.1,2.9,35.5,2.5,34.6,2.5l-1,0c-0.1,0-15.1-0.2-23.1,8.7c-4.1,4.5-5.6,10.7-4.7,18.3c0.1,0.7,0.3,1.4,0.4,2
	c0.7,3.1,0.9,4.2,0.8,7.3c0,0.3,0,0.7,0,1c-0.1,2.7-0.1,5.5-4,9.2c1.1,1,3.5,2.1,7.7-0.2c0.6-0.3,1.4-0.1,1.7,0.5
	c0.3,0.6,0.1,1.4-0.5,1.7C4,55.2,0.2,49.5,0.2,49.4c-0.3-0.5-0.2-1.2,0.2-1.6c4-3.4,4-5.6,4.1-8.2c0-0.3,0-0.7,0-1
	c0.1-2.7-0.1-3.5-0.7-6.6c-0.1-0.6-0.3-1.3-0.4-2.1C2.3,21.4,4.1,14.6,8.7,9.5C17.4-0.2,33,0,33.6,0l1,0c0.2,0,22.7,0.4,24.8,20.2
	l0.3,2.2c0.4,3.2,0.6,4.1,0.6,7.2c0.2,2.7-0.2,4.4-0.5,6.1c-0.2,1-0.4,1.9-0.5,3l0,0.1c-0.2,3.1-0.4,5.2,3.9,9
	C63.8,48.2,63.9,48.9,63.5,49.4z M53.8,34.1c0-0.3,0-3.3-1.5-5c0,0-0.1-0.1-0.1-0.1c-0.2-4.1-1-7.1-1-7.3c-0.1-0.4-0.4-0.7-0.8-0.9
	l-0.5-0.2v0c0,0,0,0-0.1,0c-0.3-0.1-7.4-2.3-11.8-6.8c-1.1-1.1-2-2-3.1-1.8c-1,0.2-1.4,1.1-1.9,2.4c-5,13-17.6,10.5-18.2,10.4
	c-0.7-0.1-1.3,0.3-1.5,1c-0.1,0.7,0.3,1.3,1,1.5c0.1,0,15.2,3.1,21.1-11.9c0-0.1,0.1-0.2,0.1-0.4c0.2,0.2,0.4,0.4,0.6,0.6
	c4.5,4.6,11.3,6.9,12.7,7.4c0.4,1.7,1.3,6.8,0.5,11.9c0,0.1-0.5,3-1.9,6.7c-2.3,2.2-5.9,4.1-11.7,4.1c-0.1,0-0.2,0-0.3,0.1
	c-0.6-1-1.9-1.6-3.5-1.6c-2.2,0-3.9,1.3-3.9,2.9s1.7,2.9,3.9,2.9c1.6,0,3-0.7,3.6-1.8c0.1,0,0.1,0,0.2,0c4.1,0,7.2-0.8,9.7-2.1
	c-2.6,5-6.9,9.7-13.6,9.7h-0.4C17.7,55.7,15,35.2,15,35c-0.1-0.7-0.7-1.2-1.4-1.1c-0.7,0.1-1.2,0.7-1.1,1.4c0.1,0.9,3,23,19.1,23H32
	c10.1,0,15.3-8.8,17.8-15.5C53.3,38.9,53.8,34.2,53.8,34.1z M26.5,32.2c0-1.1-0.9-2-2-2c-1.1,0-2,0.9-2,2c0,1.1,0.9,2,2,2
	C25.6,34.2,26.5,33.3,26.5,32.2z M41.7,32.2c0-1.1-0.9-2-2-2c-1.1,0-2,0.9-2,2c0,1.1,0.9,2,2,2C40.8,34.2,41.7,33.3,41.7,32.2z"/>
</svg>
