<?xml version="1.0" encoding="utf-8"?>
<!-- Generator: Adobe Illustrator 21.0.0, SVG Export Plug-In . SVG Version: 6.00 Build 0)  -->
<svg version="1.1" id="Calque_2" xmlns="http://www.w3.org/2000/svg" xmlns:xlink="http://www.w3.org/1999/xlink" x="0px" y="0px"
	 viewBox="0 0 58.4 63.4" style="enable-background:new 0 0 58.4 63.4;" xml:space="preserve">
<style type="text/css">
	.st0{fill:#08181E;}
</style>
<path class="st0" d="M29,62H4.3C1.9,62,0,60.1,0,57.8V12.6c0-2.3,1.9-4.3,4.3-4.3h3.7v2.5H4.3c-1,0-1.8,0.8-1.8,1.8v45.2
	c0,1,0.8,1.8,1.8,1.8H29V62z M45.5,12.6c0-2.3-1.9-4.3-4.3-4.3h-3.8v2.5h3.8c1,0,1.8,0.8,1.8,1.8v16.8h2.5V12.6z M58.4,48.3
	c0-8.3-6.8-15.1-15.1-15.1S28.3,40,28.3,48.3c0,8.3,6.8,15.1,15.1,15.1S58.4,56.6,58.4,48.3z M55.9,48.3c0,6.9-5.6,12.6-12.6,12.6
	s-12.6-5.6-12.6-12.6c0-6.9,5.6-12.6,12.6-12.6S55.9,41.4,55.9,48.3z M50.8,43.8l-2-1.5l-6.4,8.3l-4.6-3.8l-1.6,1.9l6.6,5.4
	L50.8,43.8z M33.9,4.9h-5.2C28.2,2.1,25.7,0,22.7,0c-3,0-5.5,2.1-6.1,4.9h-5.2V15h22.5V4.9z M13.9,7.4h5l0-1.2c0-2,1.7-3.7,3.7-3.7
	c2,0,3.7,1.6,3.7,3.7l0,1.2h5v5.1H13.9V7.4z M11.1,24.7h-0.9v0.9h0.9V24.7z M12.3,23.5H9v3.4h3.4V23.5z M37,23.9H16.6v2.5H37V23.9z
	 M11.1,32.8h-0.9v0.9h0.9V32.8z M12.3,31.5H9v3.4h3.4V31.5z M32,32H16.6v2.5H32V32z M11.1,40.8h-0.9v0.9h0.9V40.8z M12.3,39.6H9V43
	h3.4V39.6z M25.9,40h-9.2v2.5h9.2V40z M11.1,48.9h-0.9v0.9h0.9V48.9z M12.3,47.6H9V51h3.4V47.6z M24.5,48.1h-7.8v2.5h7.8V48.1z"/>
</svg>
