<?xml version="1.0" encoding="utf-8"?>
<!-- Generator: Adobe Illustrator 21.0.0, SVG Export Plug-In . SVG Version: 6.00 Build 0)  -->
<svg version="1.1" id="Calque_2" xmlns="http://www.w3.org/2000/svg" xmlns:xlink="http://www.w3.org/1999/xlink" x="0px" y="0px"
	 viewBox="0 0 75.7 61.2" style="enable-background:new 0 0 75.7 61.2;" xml:space="preserve">
<style type="text/css">
	.st0{fill:#08181E;}
</style>
<path class="st0" d="M28.1,43.4L3.4,29.8L18,3.4l9.5,5.3l-5.6,10.2l8.5,4.7L36,13.4l9.2,5.1L32,42.2l2.2,1.2l14.4-26L17,0L0,30.8
	l26.9,14.8L28.1,43.4z M29.4,20.1l-4.2-2.3l4.4-8l4.2,2.3L29.4,20.1z M18.6,45.5l5.7,3.2L23,50.8L7.6,42.3l0,0l-5.5-3
	c-0.6-0.3-0.8-1.1-0.5-1.7C2,36.9,2.7,36.7,3.3,37l15.1,8.3C18.5,45.4,18.5,45.5,18.6,45.5z M37.1,47.4c-1.7-1-3.7-1.2-5.6-0.6
	c-1.9,0.5-3.5,1.8-4.4,3.5c-2,3.6-0.7,8.1,2.9,10c1.1,0.6,2.3,0.9,3.6,0.9c0.7,0,1.4-0.1,2.1-0.3c1.9-0.5,3.5-1.8,4.4-3.5
	C42,53.8,40.7,49.3,37.1,47.4z M37.8,56.2c-0.6,1.1-1.7,2-2.9,2.3c-1.3,0.4-2.6,0.2-3.7-0.4c-2.4-1.3-3.2-4.3-1.9-6.6
	c0.6-1.1,1.7-2,2.9-2.3c0.4-0.1,0.9-0.2,1.4-0.2c0.8,0,1.6,0.2,2.3,0.6C38.3,50.9,39.1,53.8,37.8,56.2z M72.2,8.9h-7.6
	c-1.9,0-3.4,1.5-3.5,3.4l-5.2,0l-17.7,32l2.2,1.2l17-30.7l3.7,0v0.1c0,1.9,1.6,3.5,3.5,3.5h7.6c1.9,0,3.5-1.6,3.5-3.5v-2.5
	C75.7,10.4,74.2,8.9,72.2,8.9z M73.2,14.8c0,0.6-0.5,1-1,1h-7.6c-0.6,0-1-0.5-1-1v-2.5c0-0.6,0.5-1,1-1h7.6c0.6,0,1,0.5,1,1V14.8z"
	/>
</svg>
