<?xml version="1.0" encoding="utf-8"?>
<!-- Generator: Adobe Illustrator 21.0.0, SVG Export Plug-In . SVG Version: 6.00 Build 0)  -->
<svg version="1.1" id="Calque_2" xmlns="http://www.w3.org/2000/svg" xmlns:xlink="http://www.w3.org/1999/xlink" x="0px" y="0px"
	 viewBox="0 0 49.6 67.8" style="enable-background:new 0 0 49.6 67.8;" xml:space="preserve">
<style type="text/css">
	.st0{fill:#08181E;}
</style>
<path class="st0" d="M32.7,17.1c-1.1,0-2-0.9-2-2s0.9-2,2-2s2,0.9,2,2S33.8,17.1,32.7,17.1z M15.8,0v29c-7,6-15.4,13.5-15.7,15.5
	c-0.2,1.2-0.1,8,0.5,22.6L3.1,67C2.6,53.6,2.4,46.2,2.5,45c0.6-1.3,6.9-7.2,13.3-12.7v12.3h0L10,50.9l1.8,1.7l11.6-12.4
	c1.5-1.6,3.9-1.9,5.2-0.8c1.3,1.1,1.4,3.6,0.2,5.5L14.2,66.4l2.1,1.4l14.6-21.6c1.9-2.9,1.7-6.8-0.6-8.8c-1.6-1.4-4-1.6-6.1-0.7
	V12.1c1.9-0.5,3.3-1.9,3.8-3.8h9.6c0.5,1.9,1.9,3.3,3.8,3.8v33.5c-1.9,0.5-3.3,1.9-3.8,3.8h-5.9v2.5h8.3v-1.3c0-1.5,1.2-2.7,2.7-2.7
	h1.3V9.7h-1.3c-1.5,0-2.7-1.2-2.7-2.7V5.8H25.6V7c0,1.5-1.2,2.7-2.7,2.7h-1.3v28.6c0,0,0,0,0,0l-3.3,3.5V2.5h28.8v52.7H27.8v2.5
	h21.8V0H15.8z M32.7,22.7c3.6,0,6.5,2.7,6.5,6.1c0,3.4-2.9,6.1-6.5,6.1c-3.6,0-6.5-2.7-6.5-6.1C26.3,25.5,29.2,22.7,32.7,22.7z
	 M28.8,28.8c0,2,1.8,3.6,4,3.6c2.2,0,4-1.6,4-3.6c0-2-1.8-3.6-4-3.6C30.6,25.2,28.8,26.9,28.8,28.8z"/>
</svg>
