<?xml version="1.0" encoding="utf-8"?>
<!-- Generator: Adobe Illustrator 21.0.0, SVG Export Plug-In . SVG Version: 6.00 Build 0)  -->
<svg version="1.1" id="Layer_1" xmlns="http://www.w3.org/2000/svg" xmlns:xlink="http://www.w3.org/1999/xlink" x="0px" y="0px"
	 viewBox="0 0 2002.3 448.3" style="enable-background:new 0 0 2002.3 448.3;" xml:space="preserve">
<style type="text/css">
	.st0{enable-background:new    ;}
	.st1{fill:#08181E;}
	.st2{fill:#820B19;}
	.st3{fill:#B80B1A;}
	.st4{fill:#E84F09;}
	.st5{fill:#EC6D11;}
	.st6{fill:#F5BC00;}
	.st7{fill:#BC006C;}
	.st8{fill:#F59E10;}
	.st9{fill:#EF7E05;}
	.st10{fill:#7C014C;}
	.st11{fill:#5D0039;}
	.st12{fill:#7D014C;}
	.st13{fill:#BB006B;}
	.st14{fill:#CB007E;}
	.st15{fill:#E6368B;}
	.st16{fill:#7B0049;}
	.st17{fill:#F49A08;}
	.st18{fill:#EE7B04;}
	.st19{fill:#EC691B;}
	.st20{fill:#F8BA00;}
	.st21{fill:#0094D3;}
	.st22{fill:#23B3E8;}
	.st23{fill:#02356F;}
	.st24{fill:#00519A;}
	.st25{fill:#004F9B;}
	.st26{fill:#0095D2;}
	.st27{fill:#8DBF3D;}
	.st28{fill:#5DB13D;}
	.st29{fill:#89BE3E;}
	.st30{fill:#5AB03E;}
	.st31{fill:#007843;}
	.st32{fill:#005E22;}
	.st33{fill:#112356;}
	.st34{fill:#0F3170;}
	.st35{fill:#21B4E9;}
	.st36{fill:#B1CB2A;}
	.st37{fill:#F49C00;}
	.st38{fill:#EE7708;}
	.st39{fill:#E8510A;}
	.st40{fill:#E31513;}
	.st41{fill:#6F0C00;}
	.st42{fill:#580312;}
</style>
<g class="st0">
	<path class="st1" d="M643.1,117.5c3.4,6.2,7.3,13.8,11.7,22.9c4.4,9.1,9,18.9,13.8,29.5s9.5,21.4,14.2,32.4
		c4.7,11.1,9.1,21.4,13.2,31.2c4.1-9.7,8.5-20.1,13.2-31.2c4.7-11,9.4-21.9,14.2-32.4c4.8-10.6,9.4-20.4,13.8-29.5
		c4.4-9.1,8.3-16.7,11.7-22.9h39.9c1.9,12.9,3.6,27.4,5.2,43.4c1.6,16,3,32.7,4.2,50s2.3,34.7,3.4,52.1c1,17.4,1.9,33.8,2.7,49.2
		h-42.7c-0.6-18.9-1.3-39.5-2.2-61.8s-2.3-44.8-4.2-67.4c-3.4,7.9-7.1,16.6-11.3,26.1c-4.1,9.5-8.2,19.1-12.3,28.7
		c-4,9.5-7.9,18.7-11.7,27.4s-7,16.2-9.6,22.3h-30.6c-2.6-6.2-5.8-13.6-9.6-22.3c-3.8-8.7-7.7-17.8-11.7-27.4
		c-4-9.6-8.1-19.1-12.3-28.7c-4.1-9.5-7.9-18.3-11.3-26.1c-1.9,22.7-3.3,45.1-4.2,67.4c-0.9,22.3-1.7,42.9-2.2,61.8h-42.7
		c0.7-15.4,1.6-31.7,2.7-49.2c1-17.4,2.2-34.8,3.4-52.1s2.6-34,4.2-50c1.6-16,3.3-30.5,5.2-43.4
		C601.2,117.5,643.1,117.5,643.1,117.5z"/>
	<path class="st1" d="M843.3,312.2V117.5h43.5v114.9c6.7-10.1,13.9-20.6,21.6-31.6c7.7-11,15.4-21.5,23.2-31.7s15.4-19.8,22.9-28.8
		s14.3-16.6,20.5-22.8h35.7v194.6h-43.3V184.7c-16.5,19.3-32,39.8-46.6,61.5s-28.2,43.7-40.7,66H843.3z"/>
	<path class="st1" d="M1200.1,117.5v37.4h-58.7v157.3h-43.8V154.9h-58.7v-37.4C1038.9,117.5,1200.1,117.5,1200.1,117.5z"/>
	<path class="st1" d="M1286.6,115.3c29,0,51.3,5.1,66.8,15.3s23.3,26.9,23.3,50.1c0,23.4-7.9,40.3-23.6,50.7s-38.2,15.6-67.4,15.6
		H1272v65.2h-43.8V120.4c9.5-1.9,19.7-3.2,30.3-3.9C1269.1,115.7,1278.5,115.3,1286.6,115.3z M1289.4,152.7c-3.2,0-6.3,0.1-9.4,0.3
		s-5.8,0.4-8,0.6v56.2h13.8c15.2,0,26.6-2.1,34.3-6.2c7.7-4.1,11.5-11.8,11.5-23c0-5.4-1-9.9-2.9-13.5c-2-3.6-4.8-6.4-8.4-8.6
		c-3.7-2.2-8.1-3.7-13.3-4.5C1301.5,153.1,1295.7,152.7,1289.4,152.7z"/>
	<path class="st1" d="M1520.5,312.2c-2.2-6.8-4.5-13.7-7-20.8c-2.5-7.1-5-14.2-7.4-21.3h-76c-2.5,7.1-4.9,14.2-7.4,21.4
		c-2.5,7.1-4.8,14.1-6.9,20.8h-45.5c7.3-21,14.3-40.3,20.8-58.1c6.6-17.8,13-34.5,19.3-50.3c6.3-15.7,12.5-30.7,18.6-44.8
		s12.4-27.9,19-41.4h41.5c6.4,13.5,12.7,27.3,18.9,41.4c6.2,14.1,12.5,29.1,18.8,44.8s12.7,32.5,19.3,50.3
		c6.6,17.8,13.5,37.2,20.9,58.1h-46.9V312.2z M1467.9,161.6c-1,2.8-2.4,6.7-4.3,11.5c-1.9,4.9-4,10.5-6.4,16.9s-5.1,13.4-8.1,21.1
		c-3,7.7-6,15.7-9.1,24.1h55.7c-3-8.4-5.9-16.5-8.7-24.2c-2.8-7.7-5.4-14.7-8-21.1c-2.5-6.4-4.7-12-6.6-16.9
		C1470.6,168.2,1469,164.4,1467.9,161.6z"/>
	<path class="st1" d="M1774.6,312.2c-3.9-6.3-8.6-13.2-13.9-20.5c-5.4-7.4-11.1-14.8-17.3-22.2c-6.2-7.5-12.7-14.6-19.4-21.5
		c-6.8-6.9-13.5-12.9-20.3-18.2v82.4h-43.8V117.5h43.8v73.2c11.3-11.8,22.7-24.2,34.3-37.1c11.6-12.9,22.4-24.9,32.2-36h52
		c-13.2,15.8-26.6,30.9-40,45.5s-27.5,29.2-42.3,44c15.6,13,30.6,28.4,45.1,46.2s28.4,37.5,41.7,59L1774.6,312.2L1774.6,312.2z"/>
	<path class="st1" d="M1996.1,147.9c-6,6.2-13.1,14.2-21.4,24c-8.2,9.8-16.8,20.6-25.6,32.2c-8.8,11.6-17.5,23.6-26.1,36
		s-16.3,24.2-23,35.4h99.2v36.8h-153.1v-26.1c5.2-9.5,11.7-20.2,19.2-31.9c7.6-11.7,15.5-23.5,23.7-35.4s16.6-23.4,25.1-34.5
		s16.4-21.1,23.7-29.9h-87.4v-36.8h145.5v30.2H1996.1z"/>
</g>
<g class="st0">
	<path class="st1" d="M617.1,412.3c-3.5,0-6.7-0.5-9.5-1.6s-5.2-2.7-7.1-4.8c-1.9-2.1-3.4-4.6-4.5-7.7c-1-3-1.6-6.5-1.6-10.4
		s0.6-7.4,1.8-10.4s2.8-5.6,4.9-7.7c2.1-2.1,4.5-3.7,7.3-4.8c2.8-1.1,5.8-1.6,9-1.6c1.9,0,3.7,0.1,5.3,0.4s2.9,0.6,4.1,1
		c1.2,0.4,2.1,0.7,2.9,1.1c0.8,0.4,1.3,0.7,1.6,0.9l-2.5,7c-1.1-0.7-2.6-1.3-4.6-1.9s-4.2-0.9-6.5-0.9c-2,0-3.9,0.3-5.7,1
		s-3.3,1.7-4.6,3.1s-2.3,3.2-3,5.3c-0.7,2.1-1.1,4.6-1.1,7.4c0,2.5,0.3,4.7,0.8,6.8c0.6,2.1,1.4,3.9,2.6,5.4
		c1.2,1.5,2.7,2.7,4.5,3.5s4,1.2,6.5,1.2c3,0,5.5-0.3,7.4-0.9s3.4-1.2,4.4-1.7l2.3,7c-0.5,0.4-1.3,0.7-2.2,1.1s-2,0.7-3.3,1
		s-2.7,0.6-4.3,0.8C620.6,412.2,618.9,412.3,617.1,412.3z"/>
	<path class="st1" d="M695.2,364.5h8.5v46.8h-8.5v-20.7h-20.3v20.7h-8.5v-46.8h8.5v18.7h20.3V364.5z"/>
	<path class="st1" d="M773,411.3c-0.6-1.8-1.3-3.7-2-5.5s-1.3-3.6-2-5.5h-19.8c-0.6,1.9-1.3,3.7-1.9,5.6c-0.7,1.8-1.3,3.6-1.9,5.4
		h-8.8c1.8-5,3.4-9.6,5-13.8c1.6-4.2,3.1-8.2,4.6-12s3-7.4,4.5-10.8s3-6.8,4.6-10.1h8.1c1.6,3.3,3.1,6.7,4.6,10.1s3,7,4.5,10.8
		s3.1,7.8,4.7,12c1.6,4.2,3.3,8.8,5,13.8H773z M759.2,373.5c-1,2.4-2.2,5.3-3.5,8.7c-1.3,3.4-2.7,7.1-4.2,11.1h15.4
		c-1.4-4-2.8-7.7-4.2-11.2C761.4,378.7,760.2,375.8,759.2,373.5z"/>
	<path class="st1" d="M823.4,371.7v9.9h4.6c3.4,0,6.4,0.3,9,0.8c2.7,0.5,4.9,1.4,6.8,2.6c1.8,1.2,3.3,2.7,4.2,4.7
		c1,1.9,1.5,4.2,1.5,7c0,5.1-1.8,8.9-5.5,11.4s-8.9,3.7-15.7,3.7c-1.9,0-4-0.1-6.4-0.3c-2.4-0.2-4.6-0.6-6.8-1v-45.9h30v7.2h-21.7
		V371.7z M826.4,404.4c0.5,0,1.1,0,1.7,0c0.6,0,1.3,0,2.1-0.1c1.4,0,2.7-0.2,4-0.5s2.4-0.7,3.4-1.3c1-0.6,1.7-1.3,2.3-2.3
		c0.6-0.9,0.8-2.1,0.8-3.6c0-1.6-0.3-2.9-0.9-4c-0.6-1-1.4-1.9-2.6-2.5c-1.1-0.6-2.5-1-4.1-1.3c-1.6-0.2-3.4-0.4-5.4-0.4h-4.3v15.7
		c0.4,0,0.8,0.1,1.3,0.1C825.2,404.4,825.7,404.4,826.4,404.4z"/>
	<path class="st1" d="M883.2,404.5c1.5-2.3,3-4.5,4.7-6.7c1.6-2.2,3.3-4.2,5-6.1s3.5-3.7,5.2-5.2c-3.2-3.5-6.4-7.2-9.6-11
		c-3.2-3.8-6.1-7.5-8.8-11h10.2c2.4,3.2,4.9,6.4,7.7,9.8c2.7,3.4,5.5,6.7,8.2,10.1v-19.8h8.3v19.8c2.7-3.4,5.5-6.8,8.3-10.2
		c2.8-3.4,5.3-6.6,7.5-9.7H940c-2.9,3.7-5.9,7.4-9,11.1s-6.2,7.4-9.3,10.9c3.6,3.3,7.1,7.2,10.3,11.5s6.1,8.8,8.6,13.3H931
		c-2.6-4.2-5.3-8.2-8.1-11.8c-2.8-3.6-5.8-6.9-8.9-10v21.7h-8.3v-21.7c-3.2,3.2-6.2,6.6-8.9,10.1s-5.4,7.4-8.1,11.6h-9.5
		C880.4,409,881.7,406.8,883.2,404.5z"/>
	<path class="st1" d="M1005.6,411.3c-0.6-1.8-1.3-3.7-2-5.5s-1.3-3.6-2-5.5h-19.8c-0.6,1.9-1.3,3.7-1.9,5.6
		c-0.7,1.8-1.3,3.6-1.9,5.4h-8.8c1.8-5,3.4-9.6,5-13.8c1.6-4.2,3.1-8.2,4.6-12s3-7.4,4.5-10.8s3-6.8,4.6-10.1h8.1
		c1.6,3.3,3.1,6.7,4.6,10.1s3,7,4.5,10.8s3.1,7.8,4.7,12c1.6,4.2,3.3,8.8,5,13.8H1005.6z M991.8,373.5c-1,2.4-2.2,5.3-3.5,8.7
		c-1.3,3.4-2.7,7.1-4.2,11.1h15.4c-1.4-4-2.8-7.7-4.2-11.2C994,378.7,992.8,375.8,991.8,373.5z"/>
	<path class="st1" d="M1087.6,363.4c3,0,5.8,0.5,8.4,1.6c2.7,1,5,2.6,7,4.7s3.6,4.6,4.8,7.7c1.2,3,1.8,6.6,1.8,10.6
		s-0.6,7.5-1.8,10.6c-1.2,3-2.8,5.6-4.8,7.6s-4.3,3.6-7,4.6s-5.5,1.6-8.5,1.6c-2.8,0-5.5-0.5-8.1-1.4c-2.5-0.9-4.8-2.3-6.8-4.1
		c-2-1.8-3.6-4.1-4.8-6.8c-1.3-2.7-2-5.8-2.3-9.5h-9.5v20.8h-8.5v-46.8h8.5v18.8h9.7c0.4-3.2,1.3-6.1,2.7-8.6c1.3-2.5,3-4.5,4.9-6.2
		s4.1-2.9,6.5-3.8C1082.4,363.8,1085,363.4,1087.6,363.4z M1087.6,404.8c4.2,0,7.4-1.5,9.7-4.6c2.3-3,3.4-7.2,3.4-12.4
		c0-2.6-0.3-4.9-0.9-7s-1.4-3.9-2.6-5.4c-1.1-1.5-2.5-2.6-4.2-3.4c-1.6-0.8-3.5-1.2-5.6-1.2s-3.9,0.4-5.6,1.2
		c-1.6,0.8-3,1.9-4.2,3.4c-1.1,1.5-2,3.3-2.6,5.4s-0.9,4.4-0.9,7c0,5.2,1.2,9.3,3.5,12.4C1080.2,403.3,1083.4,404.8,1087.6,404.8z"
		/>
	<path class="st1" d="M1154.5,364.5V404h15.4v-39.6h8.6V404h15.4v-39.6h8.5V404h7v19.7h-8.2v-12.5H1146v-46.8L1154.5,364.5
		L1154.5,364.5z"/>
	<path class="st1" d="M1275.7,411.3c-0.6-1.8-1.3-3.7-2-5.5s-1.3-3.6-2-5.5H1252c-0.6,1.9-1.3,3.7-1.9,5.6c-0.7,1.8-1.3,3.6-1.9,5.4
		h-8.8c1.8-5,3.4-9.6,5-13.8c1.6-4.2,3.1-8.2,4.6-12s3-7.4,4.5-10.8s3-6.8,4.6-10.1h8.1c1.6,3.3,3.1,6.7,4.6,10.1s3,7,4.5,10.8
		s3.1,7.8,4.7,12s3.3,8.8,5,13.8H1275.7z M1261.9,373.5c-1,2.4-2.2,5.3-3.5,8.7c-1.3,3.4-2.7,7.1-4.2,11.1h15.4
		c-1.4-4-2.8-7.7-4.2-11.2C1264.1,378.7,1262.9,375.8,1261.9,373.5z"/>
	<path class="st1" d="M1339,364c1.8,0,3.9,0.1,6.3,0.2c2.3,0.2,4.5,0.5,6.6,0.9v46.1h-8.5v-17.6h-4.9c-0.6,0-1.2,0-1.8,0
		c-0.6,0-1.2-0.1-1.8-0.2c-0.9,1.1-1.8,2.3-2.7,3.7c-0.9,1.4-1.8,2.8-2.7,4.4c-0.9,1.6-1.8,3.2-2.6,4.8c-0.9,1.6-1.7,3.3-2.5,4.9h-9
		c0.8-1.8,1.7-3.5,2.6-5.3s1.9-3.5,2.9-5.2s1.9-3.3,2.9-4.7c1-1.5,1.9-2.7,2.7-3.7c-3.1-1.1-5.3-2.8-6.8-5c-1.4-2.2-2.2-4.9-2.2-8.2
		c0-2.5,0.5-4.7,1.5-6.6s2.5-3.5,4.3-4.7c1.9-1.2,4.1-2.2,6.8-2.8C1332.8,364.3,1335.7,364,1339,364z M1338.4,371.4
		c-1.7,0-3.3,0.1-4.8,0.4c-1.5,0.2-2.7,0.7-3.8,1.2c-1.1,0.6-1.9,1.4-2.5,2.4s-0.9,2.2-0.9,3.6c0,1.5,0.3,2.8,0.9,3.8
		s1.5,1.8,2.6,2.4s2.5,1,4.2,1.2c1.6,0.2,3.5,0.3,5.6,0.3h3.7v-15.1C1341.8,371.4,1340.2,371.4,1338.4,371.4z"/>
	<path class="st1" d="M1460.8,411.3c-1.2-1.8-2.5-3.7-4.1-5.7c-1.5-2-3.1-3.9-4.8-5.7c-1.7-1.8-3.4-3.6-5.2-5.3
		c-1.8-1.7-3.6-3.1-5.3-4.3v21h-8.5v-46.8h8.5v19.3c1.5-1.5,3-3.1,4.7-4.8c1.6-1.7,3.2-3.4,4.8-5.1c1.6-1.7,3.1-3.4,4.6-5
		c1.4-1.6,2.7-3.1,3.9-4.4h10.2c-1.5,1.7-3.1,3.5-4.7,5.3c-1.7,1.8-3.4,3.7-5.1,5.6c-1.8,1.9-3.5,3.7-5.3,5.6
		c-1.8,1.8-3.5,3.6-5.2,5.3c1.9,1.4,3.8,3.1,5.8,5s3.9,4,5.8,6.1c1.9,2.2,3.7,4.5,5.4,6.8c1.7,2.4,3.3,4.7,4.8,7.1H1460.8z"/>
	<path class="st1" d="M1545.2,387.8c0,4-0.6,7.5-1.8,10.6c-1.2,3.1-2.8,5.6-4.9,7.7c-2,2-4.4,3.6-7.2,4.6s-5.7,1.6-8.8,1.6
		s-6-0.5-8.8-1.6c-2.8-1-5.2-2.6-7.2-4.6s-3.7-4.6-4.9-7.7c-1.2-3.1-1.8-6.6-1.8-10.6s0.6-7.5,1.8-10.6c1.2-3,2.9-5.6,5-7.7
		s4.5-3.6,7.3-4.7c2.7-1,5.6-1.6,8.7-1.6s6,0.5,8.7,1.6c2.7,1,5.1,2.6,7.2,4.7c2,2.1,3.7,4.6,4.9,7.7
		C1544.6,380.3,1545.2,383.8,1545.2,387.8z M1508.7,387.8c0,2.6,0.3,4.9,0.9,7s1.5,3.9,2.7,5.3c1.2,1.5,2.6,2.6,4.4,3.4
		c1.7,0.8,3.6,1.2,5.8,1.2c2.1,0,4-0.4,5.7-1.2c1.7-0.8,3.2-1.9,4.4-3.4c1.2-1.5,2.1-3.2,2.7-5.3c0.6-2.1,0.9-4.4,0.9-7
		s-0.3-4.9-0.9-7s-1.5-3.9-2.7-5.3c-1.2-1.5-2.6-2.6-4.4-3.4c-1.7-0.8-3.6-1.2-5.7-1.2c-2.2,0-4.1,0.4-5.8,1.2
		c-1.7,0.8-3.2,2-4.4,3.4c-1.2,1.5-2.1,3.3-2.7,5.3C1509,382.9,1508.7,385.3,1508.7,387.8z"/>
	<path class="st1" d="M1591.7,364.5c1,1.7,2.1,3.8,3.3,6.3c1.2,2.5,2.5,5.1,3.7,7.8c1.3,2.7,2.5,5.5,3.7,8.3s2.4,5.4,3.4,7.8
		c1-2.4,2.2-5,3.4-7.8c1.2-2.8,2.5-5.6,3.7-8.3c1.3-2.7,2.5-5.3,3.7-7.8s2.3-4.6,3.3-6.3h7.7c0.4,3.4,0.8,7.1,1.2,10.9
		c0.4,3.8,0.7,7.8,1,11.8s0.6,8.1,0.8,12.2s0.5,8,0.7,11.9h-8.4c-0.2-5.4-0.4-11-0.7-16.8c-0.3-5.8-0.6-11.3-1.1-16.7
		c-0.5,1-1.1,2.3-1.8,3.7s-1.4,3-2.2,4.7c-0.8,1.7-1.5,3.4-2.3,5.2c-0.8,1.8-1.6,3.5-2.3,5.2c-0.7,1.7-1.4,3.3-2.1,4.7
		c-0.6,1.5-1.2,2.7-1.6,3.7h-6.3c-0.5-1-1-2.3-1.6-3.8s-1.3-3.1-2.1-4.8s-1.5-3.4-2.3-5.2c-0.8-1.8-1.6-3.5-2.3-5.2
		c-0.8-1.7-1.5-3.2-2.2-4.7s-1.3-2.7-1.8-3.7c-0.5,5.4-0.9,11-1.1,16.7s-0.5,11.4-0.7,16.8h-8.4c0.2-3.9,0.4-7.9,0.7-12
		c0.3-4.1,0.5-8.2,0.8-12.3c0.3-4.1,0.6-8,1-11.8s0.8-7.4,1.2-10.6L1591.7,364.5L1591.7,364.5z"/>
	<path class="st1" d="M1705.2,364.5v46.8h-8.5v-39.5h-20v39.5h-8.5v-46.8H1705.2z"/>
	<path class="st1" d="M1774.5,411.3c-0.6-1.8-1.3-3.7-2-5.5s-1.3-3.6-2-5.5h-19.8c-0.6,1.9-1.3,3.7-1.9,5.6
		c-0.7,1.8-1.3,3.6-1.9,5.4h-8.8c1.8-5,3.4-9.6,5-13.8c1.6-4.2,3.1-8.2,4.6-12s3-7.4,4.5-10.8s3-6.8,4.6-10.1h8.1
		c1.6,3.3,3.1,6.7,4.6,10.1s3,7,4.5,10.8s3.1,7.8,4.7,12s3.3,8.8,5,13.8H1774.5z M1760.7,373.5c-1,2.4-2.2,5.3-3.5,8.7
		c-1.3,3.4-2.7,7.1-4.2,11.1h15.4c-1.4-4-2.8-7.7-4.2-11.2C1762.9,378.7,1761.7,375.8,1760.7,373.5z"/>
	<path class="st1" d="M1845.4,364.5h8.5v46.8h-8.5v-20.7h-20.3v20.7h-8.5v-46.8h8.5v18.7h20.3V364.5z"/>
	<path class="st1" d="M1892.1,411.3v-46.8h8.4v31.1c1.5-2.4,3.3-5.1,5.2-7.9c2-2.8,4-5.6,6.1-8.4s4.2-5.5,6.2-8.1
		c2.1-2.6,4-4.8,5.8-6.7h7v46.8h-8.4v-33.5c-1.9,2.3-3.9,4.8-6,7.6c-2.1,2.8-4.2,5.7-6.2,8.7s-4,6-5.9,8.9s-3.6,5.7-5.1,8.3H1892.1z
		"/>
	<path class="st1" d="M1989.4,364c1.8,0,3.9,0.1,6.3,0.2c2.3,0.2,4.5,0.5,6.6,0.9v46.1h-8.5v-17.6h-4.9c-0.6,0-1.2,0-1.8,0
		c-0.6,0-1.2-0.1-1.8-0.2c-0.9,1.1-1.8,2.3-2.7,3.7c-0.9,1.4-1.8,2.8-2.7,4.4s-1.8,3.2-2.6,4.8c-0.9,1.6-1.7,3.3-2.5,4.9h-9
		c0.8-1.8,1.7-3.5,2.6-5.3s1.9-3.5,2.9-5.2s1.9-3.3,2.9-4.7c1-1.5,1.9-2.7,2.7-3.7c-3.1-1.1-5.3-2.8-6.8-5c-1.4-2.2-2.2-4.9-2.2-8.2
		c0-2.5,0.5-4.7,1.5-6.6s2.5-3.5,4.3-4.7c1.9-1.2,4.1-2.2,6.8-2.8C1983.2,364.3,1986.1,364,1989.4,364z M1988.8,371.4
		c-1.7,0-3.3,0.1-4.8,0.4c-1.5,0.2-2.7,0.7-3.8,1.2c-1.1,0.6-1.9,1.4-2.5,2.4s-0.9,2.2-0.9,3.6c0,1.5,0.3,2.8,0.9,3.8
		s1.5,1.8,2.6,2.4s2.5,1,4.2,1.2c1.6,0.2,3.5,0.3,5.6,0.3h3.7v-15.1C1992.2,371.4,1990.6,371.4,1988.8,371.4z"/>
</g>
<g id="Layer_2_2_">
	<g>
		<polygon class="st2" points="366.2,53.8 366.2,0 419.9,0 		"/>
		<polygon class="st3" points="366.2,53.8 419.9,53.8 419.9,0 		"/>
		<polygon class="st4" points="370.5,151.9 444.6,151.9 444.6,226 		"/>
		<polygon class="st5" points="370.5,151.9 370.5,226 444.6,226 		"/>
		<polygon class="st6" points="370.5,300.1 444.6,300.1 444.6,374.2 		"/>
		<polygon class="st7" points="370.5,300.1 370.5,374.2 444.6,374.2 		"/>
		<polygon class="st8" points="444.6,226 444.6,300.1 370.5,300.1 		"/>
		<polygon class="st9" points="444.6,226 370.5,226 370.5,300.1 		"/>
		<polygon class="st10" points="370.5,374.2 444.6,374.2 444.6,448.3 		"/>
		<polygon class="st11" points="370.5,374.2 370.5,448.3 444.6,448.3 		"/>
		<polygon class="st12" points="370.5,374.2 370.5,448.3 296.4,448.3 		"/>
		<polygon class="st13" points="296.4,300.1 296.4,374.2 222.3,374.2 		"/>
		<polygon class="st14" points="296.4,300.1 222.3,300.1 222.3,374.2 		"/>
		<polygon class="st15" points="296.4,226 296.4,300.1 222.3,300.1 		"/>
		<polygon class="st16" points="296.4,448.3 296.4,374.2 222.3,374.2 		"/>
		<polygon class="st17" points="148.2,300.1 222.3,300.1 222.3,374.2 		"/>
		<polygon class="st18" points="148.2,300.1 148.2,374.2 222.3,374.2 		"/>
		<polygon class="st19" points="148.2,448.3 148.2,374.2 222.3,374.2 		"/>
		<polygon class="st20" points="148.2,226 148.2,300.1 222.3,300.1 		"/>
		<polygon class="st21" points="148.2,77.8 148.2,151.9 222.3,151.9 		"/>
		<polygon class="st22" points="222.3,226 222.3,151.9 148.2,151.9 		"/>
		<polygon class="st2" points="296.4,151.9 296.4,77.8 370.5,77.8 		"/>
		<polygon class="st3" points="296.4,151.9 370.5,151.9 370.5,77.8 		"/>
		<polygon class="st23" points="74.1,151.9 74.1,77.8 148.2,77.8 		"/>
		<polygon class="st24" points="74.1,151.9 148.2,151.9 148.2,77.8 		"/>
		<polygon class="st25" points="0,226 0,151.9 74.1,151.9 		"/>
		<polygon class="st26" points="0,226 74.1,226 74.1,151.9 		"/>
		<polygon class="st27" points="0,374.2 0,300.1 74.1,300.1 		"/>
		<polygon class="st28" points="0,374.2 74.1,374.2 74.1,300.1 		"/>
		<polygon class="st29" points="74.1,374.2 148.2,374.2 148.2,448.3 		"/>
		<polygon class="st30" points="74.1,374.2 74.1,448.3 148.2,448.3 		"/>
		<polygon class="st31" points="0,374.2 74.1,374.2 74.1,448.3 		"/>
		<polygon class="st32" points="0,374.2 0,448.3 74.1,448.3 		"/>
		<polygon class="st33" points="0,77.8 74.1,77.8 74.1,151.9 		"/>
		<polygon class="st34" points="0,77.8 0,151.9 74.1,151.9 		"/>
		<polygon class="st35" points="0,226 74.1,226 74.1,300.1 		"/>
		<polygon class="st36" points="0,226 0,300.1 74.1,300.1 		"/>
		<polygon class="st37" points="456.5,71.7 456.5,37 491.2,37 		"/>
		<polygon class="st38" points="456.5,71.7 491.2,71.7 491.2,37 		"/>
		<polygon class="st39" points="393.5,80.1 439.1,80.1 439.1,125.7 		"/>
		<polygon class="st40" points="393.5,80.1 393.5,125.7 439.1,125.7 		"/>
		<polygon class="st41" points="296.4,77.8 296.4,151.9 222.3,151.9 		"/>
		<polygon class="st42" points="222.3,226 222.3,151.9 296.4,151.9 		"/>
		<polygon class="st13" points="370.5,374.2 296.4,374.2 296.4,448.3 		"/>
	</g>
</g>
</svg>
