<?xml version="1.0" encoding="utf-8"?>
<!-- Generator: Adobe Illustrator 21.0.0, SVG Export Plug-In . SVG Version: 6.00 Build 0)  -->
<svg version="1.1" id="Layer_1" xmlns="http://www.w3.org/2000/svg" xmlns:xlink="http://www.w3.org/1999/xlink" x="0px" y="0px"
	 viewBox="0 0 30.3 27.3" style="enable-background:new 0 0 30.3 27.3;" xml:space="preserve">
<style type="text/css">
	.st0{fill:#FFFFFF;}
</style>
<path class="st0" d="M27.1,10h-7.9V7.1l-6-7l0,0H2.1C1,0,0,1,0,2.1v23c0,1.2,1,2.1,2.1,2.1h15c1.2,0,2.1-0.9,2.1-2.1v-1.9h7.9
	c1.7,0,3.1-1.4,3.1-3.1v-7C30.3,11.4,28.8,10,27.1,10z M14.1,7c-0.5,0-0.9-0.4-0.9-0.9V2l4.3,5H14.1z M14.1,8.3H18V10h-7.9
	C8.4,10,7,11.4,7,13.1v7c0,1.7,1.4,3.1,3.1,3.1H18v1.9c0,0.5-0.4,0.9-0.9,0.9h-15c-0.5,0-0.9-0.4-0.9-0.9v-23c0-0.5,0.4-0.9,0.9-0.9
	H12v4.9C12,7.3,13,8.3,14.1,8.3z M8.3,13.1c0-1,0.8-1.9,1.9-1.9h17c1,0,1.9,0.8,1.9,1.9v7c0,1-0.8,1.9-1.9,1.9h-17
	c-1,0-1.9-0.8-1.9-1.9V13.1z M15.3,18.1v-3c0-1.2-1-2.1-2.1-2.1H10v7.3h3.1C14.3,20.3,15.3,19.3,15.3,18.1z M14,18.1
	c0,0.5-0.4,0.9-0.9,0.9h-1.9v-4.8h1.9c0.5,0,0.9,0.4,0.9,0.9V18.1z M22,18.1v-3c0-1.2,1-2.1,2.1-2.1h1c1.2,0,2.1,1,2.1,2.1v0.1H26
	v-0.1c0-0.5-0.4-0.9-0.9-0.9h-1c-0.5,0-0.9,0.4-0.9,0.9v3c0,0.5,0.4,0.9,0.9,0.9h1c0.5,0,0.9-0.4,0.9-0.9V18h1.3v0.1
	c0,1.2-1,2.1-2.1,2.1h-1C23,20.3,22,19.3,22,18.1z M18.1,20.3h1c1.2,0,2.1-1,2.1-2.1v-3c0-1.2-1-2.1-2.1-2.1h-1C17,13,16,14,16,15.1
	v3C16,19.3,17,20.3,18.1,20.3z M20,18.1c0,0.5-0.4,0.9-0.9,0.9h-1c-0.5,0-0.9-0.4-0.9-0.9v-3c0-0.5,0.4-0.9,0.9-0.9h1
	c0.5,0,0.9,0.4,0.9,0.9V18.1z"/>
</svg>
